{
  "accessors": [
    {
      "bufferView": 2,
      "componentType": 5126,
      "count": 2389,
      "max": [
        32.659610748291016,
        12.21533203125,
        32.282920837402344
      ],
      "min": [
        -32.659610748291016,
        -13.681873321533203,
        -47.989170074462891
      ],
      "type": "VEC3"
    },
    {
      "bufferView": 2,
      "byteOffset": 28668,
      "componentType": 5126,
      "count": 2389,
      "max": [
        0.99999415874481201,
        0.99978101253509521,
        0.98103970289230347
      ],
      "min": [
        -0.99999415874481201,
        -0.9978325366973877,
        -0.99893027544021606
      ],
      "type": "VEC3"
    },
    {
      "bufferView": 1,
      "componentType": 5126,
      "count": 2389,
      "max": [
        1,
        1
      ],
      "min": [
        0,
        0
      ],
      "type": "VEC2"
    },
    {
      "bufferView": 0,
      "componentType": 5125,
      "count": 2412,
      "max": [
        2388
      ],
      "min": [
        0
      ],
      "type": "SCALAR"
    }
  ],
  "asset": {
    "extras": {
      "author": "Three Dog Night (https://sketchfab.com/ThreeDogNight404)",
      "license": "CC-BY-4.0 (http://creativecommons.org/licenses/by/4.0/)",
      "source": "https://sketchfab.com/3d-models/base-men-body-mesh-low-poly-3b8700bb59b149a29dc545f2bcc7256c",
      "title": "Base Men Body Mesh (Low Poly)"
    },
    "generator": "Sketchfab-7.78.0",
    "version": "2.0"
  },
  "bufferViews": [
    {
      "buffer": 0,
      "byteLength": 9648,
      "byteOffset": 0,
      "name": "floatBufferViews",
      "target": 34963
    },
    {
      "buffer": 0,
      "byteLength": 19112,
      "byteOffset": 9648,
      "byteStride": 8,
      "name": "floatBufferViews",
      "target": 34962
    },
    {
      "buffer": 0,
      "byteLength": 57336,
      "byteOffset": 28760,
      "byteStride": 12,
      "name": "floatBufferViews",
      "target": 34962
    }
  ],
  "buffers": [
    {
      "byteLength": 86096,
      "uri": "man.bin"
    }
  ],
  "materials": [
    {
      "doubleSided": true,
      "name": "Scene_-_Root",
      "pbrMetallicRoughness": {
        "baseColorFactor": [
          1,
          1,
          1,
          1
        ],
        "metallicFactor": 0,
        "roughnessFactor": 0.59999999999999998
      }
    }
  ],
  "meshes": [
    {
      "name": "Box005__0",
      "primitives": [
        {
          "attributes": {
            "NORMAL": 1,
            "POSITION": 0,
            "TEXCOORD_0": 2
          },
          "indices": 3,
          "material": 0,
          "mode": 4
        }
      ]
    }
  ],
  "nodes": [
    {
      "children": [
        1
      ],
      "name": "RootNode (gltf orientation matrix)",
      "rotation": [
        -0.70710678118654746,
        -0,
        -0,
        0.70710678118654757
      ]
    },
    {
      "children": [
        2
      ],
      "name": "RootNode (model correction matrix)"
    },
    {
      "children": [
        3
      ],
      "matrix": [
        1,
        0,
        0,
        0,
        0,
        0,
        1,
        0,
        0,
        -1,
        0,
        0,
        0,
        0,
        0,
        1
      ],
      "name": "fd74f76f8f5a45659b8a54ac021cb9d9.fbx"
    },
    {
      "children": [
        4
      ],
      "name": "RootNode"
    },
    {
      "children": [
        5
      ],
      "matrix": [
        1.2419739961624146,
        0,
        0,
        0,
        0,
        -0.057275785346477467,
        -0.6546652896435291,
        0,
        0,
        1.2377589167280467,
        -0.10828986223449585,
        0,
        0,
        59.048748016357422,
        0,
        1
      ],
      "name": "Box005"
    },
    {
      "mesh": 0,
      "name": "Box005__0"
    }
  ],
  "scene": 0,
  "scenes": [
    {
      "name": "OSG_Scene",
      "nodes": [
        0
      ]
    }
  ]
}

